<?xml version="1.0" standalone="no"?>
<!DOCTYPE svg PUBLIC "-//W3C//DTD SVG 20010904//EN"
 "http://www.w3.org/TR/2001/REC-SVG-20010904/DTD/svg10.dtd">
<svg version="1.0" xmlns="http://www.w3.org/2000/svg"
 width="1536.000000pt" height="2016.000000pt" viewBox="0 0 1536.000000 2016.000000"
 preserveAspectRatio="xMidYMid meet">

<g transform="translate(0.000000,2016.000000) scale(0.100000,-0.100000)"
fill="#000000" stroke="none">
<path d="M4800 20150 c-13 -8 -132 -52 -180 -67 -8 -2 11 -17 47 -36 l62 -31
-136 -48 c-119 -41 -138 -45 -157 -34 -11 8 -33 17 -49 20 -36 8 -76 -30 -149
-140 -38 -58 -58 -79 -70 -76 -11 2 -18 -3 -18 -12 0 -9 -1 -16 -3 -16 -20 0
-212 -42 -221 -48 -6 -5 -46 -28 -90 -52 -72 -39 -78 -41 -71 -20 5 15 4 20
-4 16 -6 -4 -11 -16 -11 -26 0 -13 -14 -27 -41 -40 -42 -22 -72 -70 -85 -138
-6 -28 -10 -31 -78 -42 -89 -15 -99 -16 -162 -6 l-52 8 7 -34 7 -33 4859 -5
c2673 -3 4871 -9 4885 -14 14 -4 54 -17 90 -28 315 -100 555 -368 625 -701 13
-59 15 -1148 15 -8314 l0 -8246 108 110 c120 123 169 153 267 160 l60 5 22
-40 c22 -38 69 -79 80 -68 3 2 1 17 -4 33 -7 20 -16 27 -29 25 -16 -2 -22 7
-31 40 -10 37 -9 47 6 73 22 39 71 48 71 13 0 -54 10 -68 49 -68 22 0 51 -10
74 -25 37 -26 37 -26 37 -4 0 21 1 21 27 4 l26 -18 53 59 c28 33 51 61 49 64
-2 3 -19 14 -39 24 -31 16 -38 17 -52 5 -10 -8 -24 -13 -33 -11 -11 2 -21 -9
-30 -33 -12 -35 -14 -36 -58 -33 -44 3 -46 5 -60 47 -9 26 -11 47 -6 52 5 5
33 12 63 16 43 5 54 3 62 -10 15 -28 48 -21 48 9 0 22 3 24 23 18 12 -3 26
-13 30 -20 4 -8 17 -14 27 -14 15 0 20 7 20 25 0 25 1 25 81 25 73 0 80 2 74
18 -4 9 -14 36 -22 60 l-15 44 33 29 c82 71 119 83 343 109 81 10 93 14 128
46 21 18 43 34 48 34 7 0 10 2918 10 8685 l0 8685 -5170 0 -5169 0 -31 -44
c-16 -25 -39 -48 -51 -51 -22 -7 -55 15 -64 44 -8 25 -58 52 -75 41z m10440
-17404 c0 -7 -11 -16 -25 -19 -25 -4 -25 -4 -9 14 20 22 34 24 34 5z m-570
-287 c0 -5 -7 -9 -15 -9 -9 0 -12 6 -9 15 6 15 24 11 24 -6z"/>
<path d="M3763 19690 c-20 -37 -20 -40 -3 -55 16 -15 18 -13 23 37 2 29 4 54
3 55 -1 1 -11 -16 -23 -37z"/>
<path d="M3500 19446 c0 -9 -7 -12 -18 -9 -11 2 -34 -5 -53 -16 -19 -12 -31
-21 -27 -21 7 0 91 22 168 45 l45 13 -57 1 c-44 1 -58 -3 -58 -13z"/>
<path d="M5687 18529 c-252 -35 -506 -202 -639 -421 -21 -34 -38 -65 -38 -70
0 -7 280 -228 290 -228 3 0 15 24 28 53 34 78 112 168 197 225 104 71 163 87
305 86 136 -1 203 -21 288 -85 l54 -41 130 129 129 129 -59 47 c-80 62 -222
133 -318 157 -92 24 -269 33 -367 19z"/>
<path d="M7340 17611 l0 -801 99 0 99 0 -2 323 -1 322 220 6 c227 6 277 14
366 60 96 49 196 165 234 274 25 69 25 202 0 278 -40 128 -155 248 -292 307
-57 25 -61 25 -390 28 l-333 3 0 -800z m656 590 c144 -65 214 -238 152 -373
-34 -74 -78 -121 -140 -149 -50 -23 -64 -24 -263 -24 l-210 0 -3 270 c-1 148
0 275 3 282 3 10 54 13 212 13 182 0 213 -3 249 -19z"/>
<path d="M1345 18337 c-56 -21 -64 -28 -115 -102 -62 -90 -113 -143 -216 -228
l-71 -57 -36 15 c-20 8 -51 15 -69 15 -42 -1 -131 -37 -186 -77 -25 -18 -68
-37 -100 -44 -31 -7 -65 -16 -74 -21 -21 -10 -22 -5 -8 22 13 24 -5 35 -71 45
-44 7 -46 6 -72 -33 -14 -22 -32 -55 -40 -74 -8 -19 -45 -73 -81 -121 -64 -82
-70 -87 -105 -87 -21 0 -53 -3 -70 -6 l-31 -6 0 -8789 0 -8789 5200 0 5200 0
66 45 c79 54 131 62 201 29 37 -18 52 -12 173 69 73 50 74 51 46 58 -15 4 -64
11 -107 15 -57 5 -79 10 -79 20 0 9 12 14 38 14 20 0 74 9 120 20 46 11 92 20
103 20 23 0 23 3 4 40 -14 27 -13 29 13 46 15 10 32 23 37 30 14 18 88 33 164
34 55 0 71 -5 115 -32 39 -24 66 -33 111 -36 l60 -4 17 45 c15 41 15 51 2 93
-20 67 -18 180 5 229 19 42 60 89 101 117 23 16 -261 17 -4612 17 -5068 1
-4694 -3 -4845 57 -300 120 -511 371 -578 687 -13 59 -15 1160 -15 8408 l0
8339 -67 -1 c-44 0 -90 -8 -128 -22z m-915 -604 c0 -5 -15 -25 -33 -46 -30
-36 -34 -38 -59 -27 -30 14 -43 36 -26 46 14 9 89 32 106 33 6 1 12 -2 12 -6z"/>
<path d="M8750 17934 c-67 -13 -159 -49 -207 -81 -48 -31 -124 -108 -123 -122
1 -3 38 -30 84 -58 l82 -53 55 53 c62 60 131 87 221 87 156 0 273 -99 292
-247 8 -63 10 -62 -99 -27 -67 22 -99 27 -195 27 -122 1 -192 -11 -275 -48
-245 -109 -277 -449 -57 -603 96 -67 130 -77 267 -77 118 0 121 1 183 34 35
19 85 58 112 88 28 30 54 52 60 48 5 -3 10 -37 10 -76 l0 -69 90 0 90 0 0 378
c0 471 -5 496 -119 615 -57 60 -88 79 -171 107 -64 21 -240 35 -300 24z m252
-585 c29 -6 74 -22 101 -35 45 -23 47 -26 47 -67 0 -133 -160 -282 -317 -295
-56 -4 -70 -1 -128 27 -71 35 -100 68 -113 127 -30 143 93 250 290 253 37 1
91 -4 120 -10z"/>
<path d="M9390 17896 c0 -3 22 -54 49 -113 27 -59 79 -178 116 -263 37 -85 84
-193 105 -240 22 -47 48 -107 59 -135 11 -27 40 -95 65 -150 25 -55 46 -108
46 -118 0 -9 -31 -83 -69 -165 -101 -216 -171 -371 -171 -377 0 -3 45 -5 99
-5 l99 0 42 98 c23 53 64 147 90 207 27 61 71 164 100 230 29 66 73 170 100
230 26 61 78 180 115 265 36 85 88 205 115 265 26 61 64 147 83 193 l35 82
-107 0 -107 0 -155 -387 c-86 -213 -160 -388 -166 -390 -5 -2 -28 43 -51 99
-22 57 -71 175 -108 263 -36 88 -89 216 -118 285 l-51 125 -108 3 c-59 1 -107
0 -107 -2z"/>
<path d="M5830 17605 l0 -175 250 0 250 0 -6 -27 c-13 -59 -71 -159 -120 -208
l-52 -52 67 -50 c36 -28 99 -76 139 -107 l73 -56 35 37 c66 71 142 200 181
308 35 97 57 375 37 474 l-6 31 -424 0 -424 0 0 -175z"/>
<path d="M8123 16174 c-3 -8 -3 -46 -1 -85 3 -38 4 -69 2 -69 -2 0 -18 9 -36
20 -40 24 -88 26 -129 4 -82 -42 -93 -225 -18 -288 39 -33 113 -36 152 -6 14
11 28 20 31 20 3 0 6 -9 6 -20 0 -13 7 -20 20 -20 19 0 20 7 20 230 0 225 0
230 -20 230 -11 0 -23 -7 -27 -16z m-28 -179 c22 -21 25 -33 25 -94 0 -89 -10
-116 -51 -130 -49 -17 -68 -14 -98 17 -49 48 -49 164 0 213 28 28 93 26 124
-6z"/>
<path d="M8440 15960 c0 -223 1 -230 20 -230 19 0 20 7 20 100 0 109 14 161
48 179 33 18 90 13 112 -9 18 -18 20 -33 20 -145 l0 -125 25 0 25 0 0 103 c-1
174 -21 216 -107 224 -40 4 -54 0 -85 -21 l-38 -25 0 89 c0 83 -1 90 -20 90
-19 0 -20 -7 -20 -230z"/>
<path d="M7366 16097 c-4 -23 -15 -38 -31 -45 -31 -14 -32 -30 -2 -34 21 -3
22 -8 27 -131 4 -112 7 -130 24 -143 27 -20 106 -19 106 1 0 10 -10 15 -28 15
-52 0 -62 24 -62 148 l0 112 45 0 c33 0 45 4 45 15 0 11 -12 15 -45 15 l-45 0
0 40 c0 50 -25 55 -34 7z"/>
<path d="M5763 16045 c-22 -9 -31 -19 -27 -29 4 -11 11 -13 31 -5 38 14 100
11 117 -7 9 -8 16 -30 16 -48 l0 -33 -65 -5 c-104 -9 -158 -55 -141 -121 11
-46 44 -67 101 -67 41 0 58 5 78 24 27 25 37 24 37 -6 0 -11 7 -18 20 -18 19
0 20 7 20 119 0 65 -5 132 -11 150 -20 56 -103 78 -176 46z m137 -189 c0 -44
-32 -84 -75 -92 -75 -14 -116 60 -59 105 20 15 41 21 80 21 l54 0 0 -34z"/>
<path d="M6125 16050 c-52 -21 -85 -83 -85 -162 0 -99 53 -158 142 -158 59 0
78 7 78 30 0 16 -5 17 -38 9 -86 -19 -136 24 -137 120 0 99 41 140 130 128 39
-6 45 -4 45 12 0 29 -85 42 -135 21z"/>
<path d="M6399 16037 c-45 -30 -69 -80 -69 -145 0 -105 50 -162 142 -162 59 0
78 7 78 30 0 16 -5 17 -38 9 -85 -19 -133 22 -134 114 -1 106 37 146 127 134
39 -6 45 -4 45 12 0 37 -100 43 -151 8z"/>
<path d="M6705 16050 c-101 -42 -115 -241 -20 -300 54 -33 185 -26 185 11 0
15 -5 18 -32 13 -18 -3 -39 -8 -47 -10 -7 -2 -31 1 -52 6 -40 11 -63 41 -70
90 l-4 25 113 3 112 3 0 27 c-1 45 -36 109 -69 126 -32 17 -84 20 -116 6z
m114 -56 c12 -15 21 -37 21 -50 0 -23 -2 -24 -85 -24 -84 0 -85 0 -85 25 0 68
107 103 149 49z"/>
<path d="M7080 16053 c-8 -3 -25 -14 -37 -25 -21 -20 -21 -20 -28 1 -3 12 -13
21 -21 21 -12 0 -14 -37 -14 -230 0 -223 1 -230 20 -230 19 0 20 7 20 90 l0
90 33 -20 c49 -31 117 -27 155 8 57 54 63 204 10 261 -33 36 -93 50 -138 34z
m100 -58 c28 -30 38 -114 20 -169 -24 -73 -121 -87 -160 -23 -35 57 -21 193
22 210 7 3 31 6 54 6 31 1 46 -5 64 -24z"/>
<path d="M7635 16050 c-76 -31 -109 -154 -65 -245 26 -53 64 -75 132 -75 72 0
98 9 98 31 0 15 -5 18 -32 13 -18 -3 -39 -8 -47 -10 -25 -8 -89 16 -104 40 -9
13 -17 36 -19 52 l-3 29 114 3 113 3 -6 41 c-16 101 -96 153 -181 118z m114
-56 c12 -15 21 -37 21 -50 0 -23 -2 -24 -85 -24 -84 0 -85 0 -85 25 0 68 107
103 149 49z"/>
<path d="M8874 16045 c-46 -24 -76 -84 -76 -154 0 -108 51 -161 155 -161 63 0
97 12 97 35 0 14 -33 13 -79 -1 -22 -7 -87 14 -105 35 -9 10 -20 35 -23 55
l-6 36 113 0 113 0 -5 51 c-4 39 -12 58 -35 81 -37 37 -102 47 -149 23z m106
-35 c16 -8 40 -58 40 -81 0 -5 -41 -9 -91 -9 l-91 0 7 28 c15 61 80 91 135 62z"/>
<path d="M9250 16043 c-14 -9 -29 -23 -33 -30 -13 -21 -27 -15 -27 12 0 18 -5
25 -20 25 -19 0 -20 -7 -20 -160 l0 -160 25 0 25 0 0 105 c0 144 24 185 106
185 17 0 24 5 24 20 0 26 -45 27 -80 3z"/>
<path d="M9461 16043 c-47 -24 -74 -81 -74 -152 0 -107 52 -161 156 -161 64 0
97 12 97 36 0 11 -6 13 -22 8 -39 -12 -126 -8 -144 7 -19 15 -44 69 -44 94 0
13 18 15 110 15 l110 0 0 45 c0 94 -103 153 -189 108z m112 -35 c18 -14 39
-73 29 -82 -3 -3 -43 -6 -90 -6 l-84 0 7 28 c15 62 90 95 138 60z"/>
<path d="M7490 14465 l0 -285 30 0 c25 0 30 4 30 23 0 37 10 39 46 7 78 -68
221 -44 272 48 47 84 38 192 -21 259 -39 44 -82 63 -142 63 -52 0 -77 -10
-117 -48 l-28 -26 0 122 0 122 -35 0 -35 0 0 -285z m286 40 c30 -20 64 -88 64
-130 0 -16 -9 -49 -19 -72 -64 -141 -261 -86 -261 72 0 120 121 193 216 130z"/>
<path d="M8750 14465 l0 -285 30 0 30 0 0 285 0 285 -30 0 -30 0 0 -285z"/>
<path d="M9360 14465 l0 -285 30 0 c27 0 30 3 30 32 l0 31 23 -21 c55 -52 142
-65 212 -33 148 67 148 305 1 375 -66 31 -176 13 -210 -35 -7 -10 -16 -16 -19
-12 -4 3 -7 57 -7 120 l0 113 -30 0 -30 0 0 -285z m266 49 c49 -24 74 -70 74
-139 0 -71 -21 -109 -75 -135 -51 -25 -69 -25 -121 -1 -49 22 -74 68 -74 138
0 116 97 184 196 137z"/>
<path d="M5772 14714 c-90 -45 -137 -134 -137 -260 0 -73 3 -88 35 -149 30
-57 43 -73 87 -97 98 -55 223 -47 289 19 18 18 36 33 39 33 3 0 5 -18 5 -40 0
-38 2 -40 30 -40 l30 0 0 145 0 145 -115 0 c-108 0 -115 -1 -115 -20 0 -17 8
-19 83 -22 l82 -3 -3 -30 c-5 -48 -44 -118 -79 -141 -80 -53 -202 -33 -259 43
-70 92 -65 251 9 332 32 34 95 61 148 61 60 0 127 -35 148 -78 14 -27 21 -32
54 -32 l39 0 -30 53 c-42 75 -106 107 -211 107 -63 0 -87 -5 -129 -26z"/>
<path d="M6592 14714 c-124 -61 -176 -247 -111 -393 56 -128 202 -183 344
-130 58 22 93 58 113 117 11 32 11 32 -22 32 -27 0 -35 -6 -49 -35 -31 -64
-116 -97 -198 -75 -101 27 -150 100 -150 223 0 152 73 237 203 237 64 0 110
-25 139 -75 18 -29 27 -35 55 -35 l34 0 -15 37 c-36 86 -101 122 -216 123 -61
0 -85 -5 -127 -26z"/>
<path d="M5170 14710 c0 -18 7 -20 79 -20 63 0 80 -3 85 -16 3 -9 6 -123 6
-255 l0 -239 30 0 30 0 0 255 0 255 80 0 c73 0 80 2 80 20 0 19 -7 20 -195 20
-188 0 -195 -1 -195 -20z"/>
<path d="M8095 14564 c-73 -38 -105 -95 -105 -186 1 -101 36 -160 113 -193 88
-37 192 -3 233 78 14 27 14 27 -15 27 -18 0 -35 -8 -44 -20 -18 -26 -66 -50
-100 -50 -60 0 -127 62 -127 118 0 22 1 22 155 22 l155 0 0 39 c0 74 -42 139
-107 167 -43 19 -121 18 -158 -2z m145 -49 c30 -15 60 -61 60 -90 0 -13 -19
-15 -125 -15 -138 0 -140 1 -109 61 27 53 114 75 174 44z"/>
<path d="M8594 14566 c-17 -8 -38 -24 -47 -36 -18 -26 -37 -18 -37 16 0 19 -5
24 -25 24 l-25 0 0 -195 0 -195 29 0 29 0 4 136 3 136 33 29 c18 17 49 31 72
35 36 6 40 10 40 35 0 24 -4 29 -22 29 -13 -1 -37 -7 -54 -14z"/>
<path d="M9005 14561 c-41 -18 -66 -46 -79 -88 -7 -21 -4 -23 26 -23 27 0 36
5 46 28 15 34 49 52 98 52 47 0 94 -45 94 -89 l0 -31 -82 0 c-108 -1 -162 -23
-185 -77 -31 -75 20 -150 110 -160 56 -7 111 11 136 43 25 31 31 30 31 -6 0
-25 4 -30 25 -30 l25 0 0 148 c0 167 -10 201 -71 234 -44 23 -122 23 -174 -1z
m185 -220 c0 -34 -37 -91 -70 -108 -79 -40 -162 18 -134 92 11 27 63 44 137
45 l67 0 0 -29z"/>
<path d="M9931 14567 c-37 -19 -65 -63 -65 -103 0 -47 35 -78 112 -99 104 -29
122 -40 122 -79 0 -41 -17 -56 -68 -63 -47 -6 -98 17 -114 52 -8 18 -19 25
-40 25 -57 0 -19 -77 56 -111 122 -55 259 24 227 131 -12 42 -43 62 -124 83
-75 20 -107 41 -107 72 0 58 92 75 142 25 31 -31 78 -41 78 -16 0 20 -38 65
-70 81 -35 18 -116 19 -149 2z"/>
<path d="M7034 14518 c13 -29 48 -107 77 -173 29 -66 59 -124 65 -130 10 -8 2
-32 -32 -104 -24 -52 -44 -98 -44 -102 0 -5 14 -9 30 -9 17 0 30 1 30 3 0 1
27 63 61 137 109 241 189 421 189 426 0 2 -13 4 -29 4 -30 0 -36 -11 -136
-237 -15 -35 -30 -63 -34 -63 -3 0 -35 68 -70 150 l-64 150 -33 0 -33 0 23
-52z"/>
<path d="M5853 13570 c-60 -40 -70 -147 -19 -198 32 -32 106 -36 149 -8 l27
18 0 -31 c0 -75 -56 -131 -131 -131 -37 0 -49 -4 -49 -15 0 -11 13 -15 54 -15
107 0 168 79 169 218 1 118 -36 172 -120 179 -37 3 -56 -1 -80 -17z m128 -39
c21 -22 29 -39 29 -66 0 -50 -14 -71 -54 -85 -66 -21 -116 12 -116 78 0 92 80
134 141 73z"/>
<path d="M6197 13548 c-44 -32 -54 -44 -46 -55 9 -10 19 -7 50 18 l39 31 0
-176 c0 -169 1 -176 20 -176 19 0 20 7 20 200 0 157 -3 200 -13 200 -7 0 -38
-19 -70 -42z"/>
<path d="M6648 13574 c-51 -27 -75 -116 -47 -177 25 -55 128 -70 174 -27 l25
23 0 -29 c-1 -40 -33 -108 -61 -128 -14 -9 -43 -16 -71 -16 -36 0 -48 -4 -48
-15 0 -11 12 -15 48 -15 66 0 112 26 142 80 21 39 25 58 25 135 0 67 -4 98
-18 122 -31 58 -110 80 -169 47z m96 -24 c32 -12 58 -62 54 -103 -4 -42 -59
-81 -103 -72 -48 9 -70 38 -69 92 1 37 6 51 28 70 29 25 51 28 90 13z"/>
<path d="M6900 13570 c0 -19 7 -20 110 -20 61 0 110 -2 110 -4 0 -2 -36 -80
-80 -174 -44 -93 -80 -173 -80 -177 0 -3 9 -5 20 -3 21 3 47 54 146 281 53
122 57 117 -96 117 -123 0 -130 -1 -130 -20z"/>
<path d="M7294 13581 c-65 -28 -71 -115 -11 -162 21 -17 20 -17 -16 -52 -31
-29 -37 -41 -37 -75 0 -64 32 -94 107 -100 96 -7 143 27 143 103 0 36 -35 85
-69 96 -9 3 -2 16 23 41 43 43 47 84 13 124 -19 22 -34 28 -78 30 -30 2 -64 0
-75 -5z m114 -37 c30 -21 29 -68 -3 -99 -31 -32 -65 -32 -99 0 -52 48 -23 115
49 115 17 0 41 -7 53 -16z m-17 -184 c45 -24 63 -58 49 -94 -12 -32 -39 -46
-88 -46 -85 0 -115 77 -52 133 36 32 40 33 91 7z"/>
<path d="M7608 13574 c-37 -19 -58 -63 -58 -118 0 -36 6 -52 29 -78 25 -28 35
-32 79 -32 34 0 57 6 70 17 10 9 22 17 25 17 13 0 7 -52 -9 -86 -25 -52 -59
-74 -115 -74 -37 0 -49 -4 -49 -15 0 -11 13 -15 54 -15 101 0 155 65 164 196
6 93 -15 157 -62 185 -37 22 -90 24 -128 3z m123 -43 c61 -62 24 -156 -61
-156 -56 0 -80 26 -80 87 0 92 79 130 141 69z"/>
<path d="M7923 13566 c-38 -32 -53 -84 -53 -182 1 -128 42 -194 122 -194 89 0
120 44 126 178 7 150 -33 222 -124 222 -30 0 -51 -7 -71 -24z m108 -16 c35
-19 50 -65 50 -158 0 -48 -3 -96 -7 -107 -23 -65 -91 -86 -133 -41 -38 40 -48
182 -19 259 19 49 66 69 109 47z"/>
<path d="M8413 13549 c-29 -22 -53 -44 -53 -49 0 -22 22 -18 54 11 20 17 36
27 37 23 0 -5 0 -84 -1 -176 -1 -163 -1 -168 19 -168 21 0 21 5 21 200 0 153
-3 200 -12 200 -7 0 -37 -18 -65 -41z"/>
<path d="M8713 13570 c-78 -47 -86 -276 -11 -350 25 -25 37 -30 80 -30 41 0
54 5 78 28 72 72 68 277 -7 342 -41 36 -92 40 -140 10z m106 -20 c31 -16 46
-70 46 -165 0 -102 -15 -144 -56 -159 -40 -14 -76 0 -96 37 -24 45 -24 209 0
254 22 42 65 56 106 33z"/>
<path d="M9066 13567 c-54 -31 -80 -84 -85 -176 -7 -136 35 -201 131 -201 44
0 54 4 84 34 31 31 34 40 34 91 0 49 -4 60 -29 86 -25 24 -38 29 -79 29 -35 0
-57 -6 -76 -21 l-26 -20 0 28 c1 45 35 110 69 127 16 9 48 16 71 16 29 0 40 4
40 15 0 24 -87 19 -134 -8z m114 -197 c17 -32 12 -95 -11 -124 -28 -35 -86
-36 -118 -2 -30 32 -38 89 -17 121 30 46 122 49 146 5z"/>
<path d="M9373 13549 c-32 -25 -50 -46 -46 -55 8 -20 16 -18 48 16 16 17 32
30 37 30 4 0 8 -79 8 -175 0 -149 2 -175 15 -175 13 0 15 29 15 200 0 153 -3
200 -12 200 -7 0 -36 -19 -65 -41z"/>
<path d="M9684 13580 c-30 -12 -62 -56 -70 -95 -19 -103 77 -174 170 -126 22
12 41 19 43 17 7 -7 -15 -87 -32 -112 -20 -31 -53 -44 -111 -44 -32 0 -44 -4
-44 -15 0 -22 96 -20 140 3 50 27 82 89 88 171 6 89 -10 142 -53 180 -37 32
-85 40 -131 21z m91 -30 c27 -10 55 -62 55 -100 0 -26 -40 -67 -74 -76 -15 -3
-40 -1 -56 6 -55 23 -63 121 -13 160 29 22 49 25 88 10z"/>
<path d="M5590 13460 l0 -60 -55 0 c-42 0 -55 -3 -55 -15 0 -12 13 -15 55 -15
l55 0 0 -60 c0 -46 3 -60 15 -60 10 0 15 15 17 58 l3 57 58 3 c41 2 57 7 57
17 0 10 -16 15 -57 17 l-58 3 -3 58 c-2 42 -7 57 -17 57 -12 0 -15 -14 -15
-60z"/>
<path d="M3855 12488 c-3 -7 -4 -330 -3 -718 l3 -705 715 0 715 0 0 715 0 715
-713 3 c-565 2 -714 0 -717 -10z m1225 -708 l0 -510 -510 0 -510 0 0 510 0
510 510 0 510 0 0 -510z"/>
<path d="M4265 12077 c-3 -7 -4 -145 -3 -307 l3 -295 305 0 305 0 3 308 2 307
-305 0 c-237 0 -307 -3 -310 -13z"/>
<path d="M5900 12395 l0 -105 -100 0 -100 0 0 -100 0 -99 -102 -3 -103 -3 0
-100 0 -100 103 -3 102 -3 0 -204 0 -205 100 0 100 0 0 -205 0 -205 105 0 105
0 0 -100 0 -100 100 0 101 0 -3 -102 -3 -103 -97 -3 -97 -3 -3 -97 -3 -97
-202 -3 -203 -2 -2 407 -3 408 -100 0 -100 0 -3 -202 -2 -203 -408 -2 -407 -3
0 -100 0 -100 305 -5 305 -5 3 -97 3 -98 -308 -2 -308 -3 -3 -407 -2 -408
-100 0 -100 0 -2 203 -3 202 -100 0 -100 0 -3 -307 -2 -308 -205 0 -205 0 0
-510 0 -510 99 0 c81 0 100 -3 105 -16 3 -9 6 -56 6 -105 l0 -89 100 0 100 0
0 -205 0 -206 -97 3 -98 3 -5 100 -5 100 -100 0 -100 0 -3 -202 -2 -203 99 0
c81 0 100 -3 105 -16 3 -9 6 -56 6 -105 l0 -89 203 2 202 3 0 100 0 100 -100
5 -100 5 -3 98 -3 97 308 -2 308 -3 0 -200 0 -200 -102 -3 -103 -3 0 -204 0
-205 -305 0 -304 0 -3 103 -3 102 -100 0 -100 0 -3 -102 -3 -103 106 0 105 0
0 -100 0 -99 -102 -3 -103 -3 0 -100 0 -100 100 0 100 0 3 103 3 102 198 0
c172 0 200 -2 205 -16 3 -9 6 -56 6 -105 l0 -89 410 0 411 0 -3 103 -3 102
-305 5 -305 5 -3 98 -3 97 411 0 410 0 0 105 0 106 103 -3 102 -3 3 -102 3
-103 99 0 100 0 0 -100 0 -100 105 0 105 0 0 -205 0 -205 -105 0 -105 0 0 100
0 100 -205 0 -205 0 2 -407 3 -408 100 0 100 0 3 80 c4 133 -3 125 107 125
l95 0 0 -310 0 -310 205 0 205 0 0 -100 0 -100 -100 0 -100 0 0 -105 0 -106
98 3 97 3 3 103 3 102 202 -2 202 -3 5 -100 5 -100 98 -3 97 -3 1 91 c0 49 1
144 1 210 0 66 -1 165 -1 220 l-1 100 -100 0 -100 0 0 100 0 99 -102 3 -103 3
-3 103 -3 102 -99 0 -100 0 0 100 0 100 -100 0 -100 0 0 105 0 105 100 0 100
0 0 205 0 205 203 -2 202 -3 3 -202 2 -202 -102 -3 -103 -3 0 -100 0 -100 100
0 100 0 3 103 3 102 204 0 205 0 0 88 c0 55 4 92 12 100 8 8 45 12 100 12 l88
0 0 88 c0 116 6 122 123 122 l87 0 0 88 c0 55 4 92 12 100 8 8 45 12 100 12
l88 0 2 -202 3 -203 100 -5 100 -5 3 -97 3 -98 99 0 100 0 0 -205 0 -205 -100
0 -100 0 0 100 0 100 -105 0 -106 0 3 -97 3 -98 102 -3 103 -3 0 -312 c0 -172
0 -403 0 -514 l0 -203 305 0 305 0 0 410 0 409 -97 3 -98 3 0 200 0 200 98 3
97 3 0 -101 0 -100 105 0 105 0 0 100 0 100 100 0 100 0 0 -205 0 -205 -100 0
-100 0 0 -410 0 -410 510 0 510 0 0 194 c0 147 3 196 13 204 7 6 53 12 103 14
l89 3 0 100 0 100 -202 3 -202 2 -3 -102 -3 -103 -100 0 -100 0 -3 103 -3 102
-204 0 -205 0 0 100 0 99 103 3 102 3 0 305 0 305 -102 3 -103 3 0 88 c0 61 4
92 13 99 7 6 53 12 103 14 l89 3 3 89 c2 50 8 96 14 103 7 9 38 13 99 13 l89
0 2 -307 3 -308 103 -3 102 -3 0 -204 0 -205 405 0 405 0 5 -23 c3 -12 5 -56
3 -97 l-3 -75 -103 -3 -103 -3 3 -102 3 -102 202 -3 203 -2 2 -203 3 -202 100
0 100 0 6 200 c3 110 6 201 7 203 1 1 44 1 95 0 l92 -3 5 -200 5 -200 203 -3
202 -2 0 105 0 105 -100 0 -101 0 3 98 3 97 95 5 95 5 3 103 3 102 -101 0
-100 0 0 205 0 205 100 0 100 0 -2 408 -3 407 -200 0 -200 0 -3 -102 -3 -103
100 0 c81 0 100 -3 105 -16 3 -9 6 -54 6 -100 l0 -84 -205 0 -205 0 -2 203 -3
202 -202 3 -203 2 -2 203 -3 202 -100 5 -100 5 -3 86 c-2 62 1 89 11 97 7 6
53 12 103 14 l89 3 0 200 0 200 -80 3 c-44 1 -90 4 -103 7 l-22 5 2 303 3 302
200 0 200 0 3 -512 2 -512 103 -3 102 -3 0 -95 0 -95 -100 -5 -100 -5 -3 -103
-3 -103 103 3 103 3 3 103 3 103 97 -3 97 -3 3 -102 3 -103 204 0 205 0 0 310
0 310 -100 0 -101 0 3 98 3 97 98 3 97 3 0 204 0 205 -97 0 c-54 1 -190 2
-303 3 l-205 2 -5 100 -5 100 -102 3 -103 3 0 88 c0 61 4 92 13 100 9 6 84 12
203 13 l189 3 3 103 3 102 -101 0 -100 0 0 100 0 100 -105 0 -105 0 0 -100 0
-100 -205 0 -205 0 0 89 c0 60 4 92 13 99 7 6 53 12 103 14 l89 3 3 203 2 202
-205 0 -205 0 0 -100 0 -100 -105 0 -105 0 0 100 0 100 -205 0 -205 0 2 -202
3 -203 203 -3 202 -2 0 -100 0 -100 -100 0 -100 0 0 -105 0 -106 -102 3 -103
3 -3 103 -3 102 -99 0 -100 0 0 715 0 715 -307 2 -308 3 -3 103 -3 102 -99 0
-100 0 0 193 c0 137 3 196 12 205 8 8 45 12 100 12 l88 0 2 203 3 202 103 3
102 3 0 -106 0 -105 100 0 100 0 0 -305 0 -305 105 0 105 0 0 305 0 305 100 0
100 0 0 -100 0 -100 105 0 106 0 -3 -102 -3 -103 -102 -3 -103 -3 0 -99 0
-100 108 -1 c59 0 150 -1 202 -2 l95 -2 5 -100 5 -100 100 0 100 0 3 89 c2 50
8 96 14 103 7 9 39 13 99 13 l89 0 0 -205 0 -205 -202 -2 -203 -3 -3 -202 -2
-203 205 0 205 0 0 205 0 204 103 3 102 3 5 95 5 95 200 5 200 5 3 102 3 102
198 0 c162 0 200 -2 205 -14 3 -8 5 -99 5 -204 l0 -190 -102 -3 -102 -3 -3
-202 -2 -203 -100 0 -100 0 -2 203 -3 202 -100 0 -100 0 -3 -202 -2 -203 105
0 105 0 0 -105 0 -105 100 0 100 0 0 -100 0 -100 205 0 205 0 0 305 0 305
-100 0 -100 0 0 105 0 105 100 0 100 0 0 305 0 305 -97 0 c-54 1 -145 2 -203
3 l-105 2 -5 100 -5 100 -97 3 -98 3 -1 -98 c-1 -54 -2 -145 -3 -203 l-1 -105
-307 -3 -308 -2 0 205 0 205 -305 0 -305 0 0 100 0 100 100 0 100 0 0 105 0
105 -100 0 -100 0 -2 203 -3 202 -102 3 -103 3 0 99 0 99 103 3 102 3 3 89 c2
50 8 96 14 103 7 9 39 13 99 13 l89 0 0 100 0 99 -97 3 -98 3 -5 100 -5 100
-305 0 -305 0 0 -100 0 -100 203 -3 202 -2 0 -205 0 -205 -100 0 -100 0 0
-100 0 -100 -105 0 -105 0 0 205 0 205 -100 0 -100 0 0 100 0 100 -105 0 -105
0 0 105 0 105 -100 0 -100 0 0 -105 0 -105 100 0 100 0 0 -100 0 -100 105 0
106 0 -3 -102 -3 -103 -100 -2 c-55 -1 -146 -2 -202 -2 l-103 -1 0 -100 0 -99
-102 -3 -103 -3 -5 -100 -5 -100 -180 -3 c-99 -1 -190 0 -202 3 -22 5 -23 11
-23 89 0 110 7 116 123 116 l87 0 0 88 c0 55 4 92 12 100 8 8 45 12 99 12 l88
0 3 98 c2 53 1 145 0 204 l-4 108 -201 2 -202 3 -3 103 -3 102 -99 0 -100 0 0
-105 0 -105 -105 0 -105 0 0 -100 0 -100 105 0 105 0 0 100 0 100 100 0 100 0
-2 -202 -3 -203 -97 -3 -98 -3 -2 -407 -3 -407 -100 0 -100 0 -2 305 c-1 168
-2 351 -2 407 l-1 102 -97 3 -98 3 -5 100 -5 100 -100 0 -100 0 0 -100 0 -100
103 -3 102 -3 -2 -202 -3 -202 -200 0 -200 0 -3 203 -2 202 -98 1 c-53 0 -144
1 -202 2 l-105 2 -3 103 -3 102 -99 0 -100 0 0 -105 0 -105 100 0 100 0 -2
-202 -3 -203 -202 -2 -203 -3 0 205 0 205 -100 0 -100 0 0 105 0 105 100 0
100 0 0 100 0 99 103 3 102 3 0 100 0 100 -102 3 -103 3 0 -106z m2660 -920
l0 -205 -100 0 -100 0 0 205 0 205 100 0 100 0 0 -205z m-1840 -210 l0 -205
100 0 99 0 3 -97 3 -98 100 -5 100 -5 0 -100 0 -100 -100 -5 -100 -5 -3 -97
-3 -98 -99 0 -99 0 -3 -102 -3 -103 -88 -3 c-57 -2 -94 1 -103 9 -10 8 -14 34
-14 87 0 105 8 112 122 112 l88 0 0 100 0 100 -93 0 c-59 0 -97 4 -105 12 -8
8 -12 46 -12 105 l0 93 -100 0 -100 0 0 100 0 100 -100 0 -100 0 0 94 c0 68 4
97 14 105 9 8 45 11 98 9 l83 -3 3 -102 3 -103 99 0 100 0 1 93 c1 50 1 136
-1 190 -1 66 2 102 10 112 9 11 35 15 106 15 l94 0 0 -205z m2250 105 l0 -100
105 0 104 0 3 98 3 97 98 3 97 3 0 -101 0 -100 105 0 105 0 0 -105 0 -105
-105 0 -105 0 0 105 0 105 -100 0 -100 0 0 -105 0 -105 -105 0 -105 0 0 105 0
105 -100 0 -100 0 0 84 c0 46 3 91 6 100 5 13 24 16 100 16 l94 0 0 -100z
m-1845 -205 l0 -100 -100 0 -100 0 -3 84 c-4 115 3 123 117 119 l86 -3 0 -100z
m820 82 c3 -12 5 -58 3 -102 l-3 -80 -88 -3 c-57 -2 -94 1 -103 9 -10 8 -14
34 -14 87 0 104 8 112 116 112 78 0 84 -1 89 -23z m410 -82 l0 -100 -100 0
-100 0 -3 80 c-2 49 2 88 9 103 12 21 18 23 103 20 l91 -3 0 -100z m-1025
-205 l0 -100 -100 0 -100 0 0 100 0 100 100 0 100 0 0 -100z m820 0 l0 -100
-100 0 -100 0 0 100 0 100 100 0 100 0 0 -100z m-412 -307 l2 -202 -97 -3 -98
-3 -5 -100 -5 -100 -88 -3 c-55 -2 -94 1 -102 8 -11 9 -14 72 -14 303 0 160 2
294 5 299 3 4 94 7 202 5 l197 -2 3 -202z m-2040 -310 l3 -103 304 0 305 0 0
-100 0 -100 203 -2 202 -3 3 -202 2 -203 205 0 205 0 0 205 0 204 -102 3 -103
3 -3 77 c-4 115 0 119 111 116 l92 -3 3 -97 3 -98 304 0 305 0 1 93 c1 50 2
142 2 202 l2 110 200 0 200 0 3 -102 3 -103 -100 0 -101 0 -2 -202 -3 -203
-100 -5 -100 -5 0 -95 0 -95 308 -3 307 -2 0 299 c0 263 2 300 16 305 9 3 54
6 100 6 l84 0 0 -100 0 -99 103 -3 102 -3 3 -102 3 -103 99 0 100 0 0 -205 0
-205 -100 0 -100 0 -2 -202 -3 -203 -200 0 -200 0 -3 88 c-2 57 1 94 9 103 8
10 36 14 100 14 l89 0 0 100 0 100 -410 0 -410 0 0 -100 0 -100 205 0 206 0
-3 -102 -3 -103 -97 -3 -98 -3 0 -99 0 -100 100 0 101 0 -3 -102 -3 -103 -280
-3 c-154 -1 -290 0 -302 3 -22 5 -23 10 -23 93 0 55 4 92 12 100 8 8 45 12
100 12 l88 0 0 100 0 99 -97 3 -98 3 -3 203 -2 202 -105 0 -105 0 0 -100 0
-100 -100 0 -99 0 -3 -102 -3 -103 -102 -3 -103 -3 0 -99 0 -100 -100 0 -99 0
-3 -102 -3 -103 -80 -3 c-127 -5 -125 -6 -125 91 1 113 5 117 119 117 l91 0 0
100 0 99 -102 3 -103 3 -3 103 -3 102 -99 0 -99 0 -3 -102 -3 -103 -97 -3 -98
-3 0 -204 0 -205 100 0 100 0 0 -100 0 -100 108 -1 c59 0 150 -1 202 -2 l95
-2 3 -202 2 -202 104 -3 c58 -2 150 -2 205 0 l101 3 2 202 3 202 98 3 97 3 0
-411 0 -410 -100 0 -100 0 0 100 0 101 -102 -3 -103 -3 0 -95 0 -95 100 -5
100 -5 0 -100 0 -100 -100 -5 -100 -5 -3 -97 -3 -98 -99 0 -100 0 0 -105 0
-105 -93 0 c-59 0 -97 4 -105 12 -7 7 -12 42 -12 87 0 104 8 111 122 111 l88
0 0 100 0 100 -93 0 c-59 0 -97 4 -105 12 -8 8 -12 46 -12 105 l0 93 -100 0
-99 0 -3 -102 -3 -103 -97 -3 -98 -3 0 -204 0 -205 100 0 100 0 0 -100 0 -100
-100 0 -100 0 0 100 0 100 -105 0 -104 0 -3 103 -3 102 -97 3 -98 3 0 99 0
100 -105 0 -105 0 0 -100 0 -100 -202 2 -203 3 -3 86 c-2 62 1 89 11 97 7 6
53 12 103 14 l89 3 0 100 0 100 -100 5 -100 5 -3 86 c-2 62 1 89 11 97 7 6 53
12 103 14 l89 3 3 102 3 102 -103 3 -103 3 -3 86 c-2 65 1 89 12 98 9 8 45 11
103 9 l88 -3 3 -97 3 -98 99 0 100 0 0 89 c0 60 4 92 13 99 7 6 53 12 103 14
l89 3 3 202 2 202 98 3 97 3 3 103 3 102 -100 0 -100 0 -3 -102 -3 -103 -102
-3 -103 -3 0 -100 0 -99 -202 2 -203 3 -3 98 -3 97 206 0 205 0 0 205 0 205
-100 0 -100 0 0 -100 0 -100 -105 0 -104 0 -3 -102 -3 -103 -97 -3 -98 -3 0
-100 0 -100 -102 3 -103 3 -3 98 -3 97 -99 0 -99 0 -3 -97 -3 -98 -100 0 -100
0 -3 83 c-2 53 1 89 9 98 8 10 37 14 105 14 l94 0 -2 308 -3 307 -102 3 -103
3 0 -206 0 -205 -100 0 -100 0 0 193 c0 137 3 196 12 205 8 8 45 12 100 12
l88 0 0 100 0 100 205 0 205 0 0 105 0 105 105 0 105 0 0 193 c0 137 3 196 12
205 8 8 45 12 100 12 l88 0 0 88 c0 55 4 92 12 100 8 8 46 12 105 12 l93 0 0
105 0 105 203 -3 202 -2 3 -102z m5527 -745 c3 -18 5 -64 3 -103 l-3 -70 -102
-3 -103 -3 0 106 0 105 100 0 99 0 6 -32z m-2460 -893 l0 -100 -100 0 -100 0
-3 80 c-2 49 2 88 9 103 12 21 18 23 103 20 l91 -3 0 -100z m-1637 -208 l3
-98 -103 3 -103 3 -3 82 c-4 111 -1 113 113 110 l90 -2 3 -98z m1432 9 c0 -52
4 -97 9 -101 6 -3 98 -5 205 -5 l196 0 0 -105 0 -105 -196 0 c-107 0 -199 -2
-205 -5 -5 -4 -9 -46 -9 -95 0 -49 4 -91 9 -95 6 -3 98 -5 205 -5 l196 0 0
-105 0 -105 -197 0 c-108 0 -200 -3 -205 -8 -5 -5 -7 -96 -6 -203 l3 -194 100
0 100 0 3 89 c2 50 8 96 14 103 8 10 35 13 97 11 l86 -3 3 -202 2 -203 105 0
105 0 2 303 3 302 98 3 97 3 0 104 0 105 -100 0 -100 0 0 193 c0 137 3 196 12
205 8 8 45 12 100 12 l87 0 3 -102 3 -103 100 0 100 0 3 203 2 202 305 0 305
0 0 -100 0 -100 -202 -2 -203 -3 0 -100 0 -100 97 -3 c92 -3 98 -4 103 -25 3
-12 4 -148 2 -302 l-2 -280 -100 -5 -100 -5 -3 -202 -2 -203 -100 0 -100 0 0
-205 0 -205 -105 0 -105 0 0 205 0 205 -100 0 -99 0 -3 -102 -3 -103 -100 0
-100 0 -3 103 -3 102 -99 0 -100 0 0 -205 0 -205 -105 0 -106 0 3 -102 3 -103
103 -3 102 -3 0 -204 0 -205 -105 0 -105 0 0 105 0 105 -100 0 -100 0 0 193
c0 137 3 196 12 205 8 8 45 12 100 12 l88 0 0 205 0 205 -100 0 -100 0 0 305
0 305 -93 0 c-59 0 -97 4 -105 12 -8 8 -12 46 -12 105 l0 94 -97 -3 -98 -3 -5
-100 -5 -100 -94 -3 c-68 -2 -97 1 -102 10 -14 22 -10 375 5 387 6 5 52 11
102 13 l89 3 3 89 c2 50 8 96 14 103 8 10 35 13 97 11 l86 -3 5 -100 5 -100
103 -3 102 -3 0 190 c0 104 3 196 6 205 5 13 24 16 100 16 l94 0 0 -94z
m-3685 -416 l0 -95 -202 -3 -203 -2 0 84 c0 46 3 92 6 100 6 14 30 16 203 14
l196 -3 0 -95z m2865 -410 l0 -100 99 0 c81 0 100 -3 105 -16 3 -9 6 -101 6
-205 l0 -189 103 -1 c56 0 147 -1 202 -2 l100 -2 0 -100 0 -100 -100 -5 -100
-5 -3 -97 -3 -98 -99 0 -100 0 0 100 0 99 -102 3 -103 3 -3 102 -3 103 -202 2
-202 3 0 200 0 200 103 3 102 3 0 87 c0 55 4 92 12 100 8 8 45 12 100 12 l88
0 0 -100z m3278 -2 l3 -97 102 -3 102 -3 0 -200 0 -200 -102 -3 -103 -3 0 101
0 100 -100 0 -100 0 0 199 c0 150 3 201 13 205 6 2 50 4 97 3 l85 -2 3 -97z
m-1024 -524 c3 -9 6 -56 6 -105 l0 -89 100 0 100 0 0 -100 0 -100 -205 0 -205
0 0 198 c0 109 3 202 7 205 3 4 48 7 99 7 75 0 93 -3 98 -16z m-2866 -297 l3
-98 -103 3 -103 3 -3 77 c-4 115 0 119 111 116 l92 -3 3 -98z m3277 -329 c3
-13 4 -149 2 -303 l-2 -280 -307 -3 -308 -2 0 293 c0 215 3 296 12 305 9 9 90
12 305 12 l293 0 5 -22z m415 -283 l0 -105 199 0 c172 0 200 -2 205 -16 3 -9
6 -54 6 -100 l0 -84 -105 0 -105 0 0 -205 0 -205 -100 0 -99 0 -3 98 -3 97
-100 5 -100 5 -3 294 c-2 208 1 298 9 307 8 10 38 14 105 14 l94 0 0 -105z
m-4710 -205 l0 -100 100 0 101 0 -3 -102 -3 -103 -97 -3 -98 -3 0 106 0 105
-105 0 -105 0 0 94 c0 66 4 96 13 99 6 3 54 6 105 6 l92 1 0 -100z m608 -612
l-3 -103 -80 -3 c-127 -5 -125 -6 -125 90 0 112 6 118 122 118 l89 0 -3 -102z"/>
<path d="M5290 10140 l0 -100 -105 0 -106 0 3 -102 3 -103 103 -3 102 -3 0
-99 0 -100 -205 0 -205 0 0 -105 0 -105 305 0 305 0 0 205 0 205 -100 0 -100
0 0 105 0 105 205 0 205 0 0 100 0 100 -205 0 -205 0 0 -100z"/>
<path d="M6110 9835 l0 -205 -105 0 -105 0 0 100 0 100 -100 0 -100 0 0 -305
0 -305 100 0 99 0 3 -102 3 -103 103 -3 102 -3 0 94 c0 59 4 97 12 105 8 8 45
12 100 12 l88 0 0 100 0 100 -100 0 -100 0 0 105 0 105 100 0 100 0 0 205 0
205 -100 0 -100 0 0 -205z"/>
<path d="M7337 9823 c-4 -3 -7 -48 -7 -100 l0 -93 105 0 105 0 0 100 0 100
-98 0 c-54 0 -102 -3 -105 -7z"/>
<path d="M6514 9617 c-3 -8 -4 -54 -2 -103 l3 -89 100 0 100 0 3 103 3 102
-101 0 c-74 0 -102 -3 -106 -13z"/>
<path d="M6920 9320 l0 -100 105 0 105 0 0 100 0 100 -105 0 -105 0 0 -100z"/>
<path d="M4878 9118 l-3 -103 -102 -3 -103 -3 0 -204 0 -205 105 0 105 0 0 93
c0 59 4 97 12 105 8 8 45 12 100 12 l88 0 0 88 c0 55 4 92 12 100 8 8 46 12
105 12 l94 0 -3 103 -3 102 -202 3 -202 2 -3 -102z"/>
<path d="M6110 8195 l0 -205 100 0 100 0 0 205 0 205 -100 0 -100 0 0 -205z"/>
<path d="M6517 7983 c-10 -9 -8 -175 1 -191 6 -9 34 -12 103 -10 l94 3 3 103
3 102 -99 0 c-54 0 -102 -3 -105 -7z"/>
<path d="M6003 7782 l-103 -3 0 -99 0 -100 -100 0 -100 0 0 -105 0 -105 205 0
205 0 0 93 c0 59 4 97 12 105 8 8 45 12 100 12 l88 0 0 99 0 100 -102 3 c-57
2 -149 2 -205 0z"/>
<path d="M9382 7578 l3 -203 100 0 100 0 3 203 2 202 -105 0 -105 0 2 -202z"/>
<path d="M10000 6245 l0 -105 100 0 100 0 0 105 0 105 -100 0 -100 0 0 -105z"/>
<path d="M6720 12395 l0 -105 -105 0 -106 0 3 -97 3 -98 103 -3 102 -3 0 101
0 100 100 0 100 0 0 105 0 105 -100 0 -100 0 0 -105z"/>
<path d="M10000 11780 l0 -720 715 0 715 0 0 720 0 720 -715 0 -715 0 0 -720z
m1230 0 l0 -510 -515 0 -515 0 0 510 0 510 515 0 515 0 0 -510z"/>
<path d="M10410 11780 l0 -310 303 2 302 3 3 308 2 307 -305 0 -305 0 0 -310z"/>
<path d="M3854 10847 c-3 -8 -4 -54 -2 -103 l3 -89 305 0 305 0 0 100 0 100
-303 3 c-246 2 -303 0 -308 -11z"/>
<path d="M3854 10437 c-3 -8 -4 -54 -2 -103 l3 -89 203 -3 202 -2 0 105 0 105
-200 0 c-158 0 -202 -3 -206 -13z"/>
<path d="M9380 10140 l0 -100 105 0 105 0 0 100 0 100 -105 0 -105 0 0 -100z"/>
<path d="M3857 10034 c-4 -4 -7 -97 -7 -206 l0 -198 105 0 105 0 -2 203 -3
202 -95 3 c-53 1 -99 0 -103 -4z"/>
<path d="M11228 8903 c-1 -60 -2 -152 0 -206 l3 -98 97 3 97 3 3 203 2 202
-99 0 -99 0 -4 -107z"/>
<path d="M3855 6338 c-3 -7 -4 -330 -3 -718 l3 -705 715 0 715 0 0 715 0 715
-713 3 c-565 2 -714 0 -717 -10z m1225 -708 l0 -510 -510 0 -510 0 0 510 0
510 510 0 510 0 0 -510z"/>
<path d="M4265 5927 c-3 -7 -4 -145 -3 -307 l3 -295 305 0 305 0 3 308 2 307
-305 0 c-237 0 -307 -3 -310 -13z"/>
<path d="M7130 6040 l0 -100 100 0 100 0 0 -105 0 -105 -100 0 -100 0 2 -202
3 -203 98 -3 97 -3 0 -99 0 -100 -100 0 -100 0 0 -105 0 -105 100 0 99 0 3
103 3 102 199 2 c109 2 200 4 201 5 4 4 8 186 6 306 l-1 102 -100 0 -100 0 0
305 0 305 -205 0 -205 0 0 -100z"/>
<path d="M5495 5518 c-3 -7 -4 -146 -3 -308 l3 -295 203 -3 203 -2 -3 102 -3
103 -97 3 -98 3 -2 202 -3 202 -98 3 c-73 2 -99 -1 -102 -10z"/>
<path d="M10204 5107 c-2 -7 -4 -54 -2 -103 l3 -89 100 0 100 0 0 100 0 100
-98 3 c-75 2 -99 0 -103 -11z"/>
<path d="M8088 4230 c-219 -37 -401 -198 -467 -414 -26 -83 -28 -224 -6 -310
53 -202 227 -374 426 -421 205 -48 401 7 550 154 121 120 173 243 173 411 0
285 -194 523 -471 576 -81 15 -131 16 -205 4z m41 -159 c10 -6 59 -57 110
-115 l92 -106 48 0 c55 0 71 -12 71 -56 0 -35 -13 -44 -61 -44 l-29 0 0 -240
0 -240 -48 0 c-26 0 -53 5 -60 12 -7 7 -12 39 -12 72 l0 61 -84 0 c-80 0 -86
2 -117 30 -49 46 -59 81 -59 200 0 103 -1 105 -23 105 -40 0 -69 28 -65 63 l3
32 148 3 c81 1 147 6 147 10 0 4 -40 45 -90 90 -49 46 -90 90 -90 97 0 25 87
43 119 26z"/>
<path d="M8100 3655 c0 -88 2 -98 25 -120 26 -27 49 -31 89 -15 26 9 26 11 26
120 l0 110 -70 0 -70 0 0 -95z"/>
<path d="M9724 3996 c-38 -17 -65 -52 -137 -176 -111 -194 -130 -239 -130
-310 0 -115 69 -222 179 -278 21 -11 73 -41 114 -66 41 -25 78 -46 82 -46 4 0
-2 16 -14 36 -40 67 -42 180 -4 224 12 14 128 209 198 335 59 106 32 163 -117
241 -108 57 -123 60 -171 40z"/>
<path d="M10452 3959 c-36 -18 -82 -64 -82 -83 0 -3 18 -15 40 -26 53 -27 95
-91 95 -144 0 -33 -15 -66 -71 -161 -103 -174 -134 -231 -134 -243 0 -17 101
-62 139 -62 53 0 92 29 131 99 19 34 58 102 87 151 100 169 117 208 117 264 0
94 -67 195 -143 216 -60 16 -132 12 -179 -11z"/>
<path d="M5878 3923 l-326 -3 -16 -47 c-9 -26 -16 -50 -16 -55 0 -4 146 -8
325 -8 179 0 325 -3 325 -7 0 -4 -10 -37 -22 -75 l-22 -68 -321 0 -321 0 -47
-162 c-70 -242 -69 -218 -3 -218 l55 0 14 53 c8 28 23 88 33 132 l19 80 317 5
c309 5 318 6 339 27 22 22 88 249 89 306 0 30 -31 49 -73 45 -12 -2 -169 -4
-349 -5z"/>
<path d="M4671 3833 c-13 -49 -46 -164 -73 -258 -28 -93 -51 -192 -52 -220
l-1 -50 361 -3 c281 -2 364 1 372 10 6 7 20 51 32 98 12 47 34 128 50 180 16
52 41 140 55 195 14 55 28 108 31 118 5 16 0 18 -52 15 l-58 -3 -18 -60 c-10
-33 -23 -80 -28 -105 -6 -25 -29 -111 -52 -192 l-42 -148 -258 0 c-243 0 -258
1 -258 18 0 10 18 79 40 153 37 121 90 319 90 333 0 3 -26 6 -58 6 l-58 0 -23
-87z"/>
<path d="M6407 3913 c-2 -5 -18 -57 -35 -118 -26 -92 -120 -418 -138 -478 -5
-16 1 -18 57 -15 l62 3 27 100 c15 55 44 159 64 230 61 213 76 270 76 278 0 4
-24 7 -54 7 -30 0 -57 -3 -59 -7z"/>
<path d="M6734 3846 l-20 -74 38 -77 c22 -42 38 -81 36 -85 -2 -5 -39 -41 -83
-81 -74 -67 -82 -78 -101 -141 -12 -39 -17 -65 -10 -61 11 7 316 284 316 287
0 2 -150 297 -154 303 -1 1 -11 -31 -22 -71z"/>
<path d="M14690 2396 c0 -18 54 -23 65 -6 3 6 -3 10 -14 10 -10 0 -26 3 -35 6
-11 4 -16 1 -16 -10z"/>
<path d="M8815 2352 c-67 -32 -127 -92 -156 -156 -23 -51 -26 -187 -5 -237 18
-43 73 -119 86 -119 6 0 10 42 10 105 0 85 3 107 15 111 10 4 15 20 15 48 1
128 115 207 235 161 55 -20 90 -74 101 -152 3 -29 12 -54 20 -57 11 -4 14 -30
14 -111 0 -58 4 -105 9 -105 16 0 70 82 87 133 12 35 15 71 12 121 -8 118 -64
203 -170 256 -52 25 -73 30 -137 30 -63 0 -86 -5 -136 -28z"/>
<path d="M8883 2210 c-33 -19 -53 -66 -53 -122 l0 -28 115 0 115 0 0 51 c0 45
-4 55 -34 85 -40 40 -92 46 -143 14z"/>
<path d="M7270 1720 l0 -250 49 0 c27 0 51 5 53 11 2 6 14 5 33 -5 159 -83
295 150 156 267 -50 42 -92 45 -173 12 -17 -7 -18 2 -18 104 l0 111 -50 0 -50
0 0 -250z m219 -56 c26 -34 27 -68 1 -94 -42 -42 -120 -12 -120 47 0 65 80 96
119 47z"/>
<path d="M8320 1720 l0 -250 50 0 50 0 0 250 0 250 -50 0 -50 0 0 -250z"/>
<path d="M8900 1720 l0 -250 50 0 c40 0 50 3 50 17 0 14 2 14 20 -2 29 -27
107 -31 150 -7 50 26 83 93 77 155 -4 51 -26 88 -71 121 -37 28 -125 29 -155
2 l-21 -19 0 116 0 117 -50 0 -50 0 0 -250z m215 -55 c46 -45 19 -115 -45
-115 -63 0 -94 77 -48 120 29 27 64 25 93 -5z"/>
<path d="M5913 1935 c-83 -42 -132 -122 -133 -219 0 -71 18 -121 64 -173 48
-55 104 -82 167 -83 136 0 228 90 229 223 l0 58 -112 -3 -113 -3 0 -40 0 -40
58 -3 c31 -2 57 -5 57 -7 0 -37 -62 -85 -112 -85 -62 0 -118 71 -118 150 0
120 104 186 194 125 20 -14 40 -25 44 -24 4 0 20 16 36 35 34 42 27 55 -49 90
-69 33 -145 32 -212 -1z"/>
<path d="M6620 1951 c-107 -33 -190 -138 -190 -241 0 -85 62 -180 145 -222 71
-37 205 -34 259 5 18 13 17 15 -4 56 -18 37 -25 42 -43 36 -12 -4 -47 -10 -77
-12 -65 -4 -108 17 -140 69 -39 64 -16 146 52 188 26 16 45 20 88 17 30 -2 65
-8 77 -12 18 -6 25 -1 43 36 21 41 22 43 4 56 -41 30 -153 42 -214 24z"/>
<path d="M5420 1905 l0 -44 58 -3 57 -3 3 -192 2 -193 55 0 55 0 0 195 0 195
55 0 55 0 0 45 0 45 -170 0 -170 0 0 -45z"/>
<path d="M7741 1758 c-60 -31 -83 -66 -89 -130 -3 -44 0 -59 20 -87 34 -51 71
-73 126 -79 62 -6 111 10 147 48 l28 29 -37 17 c-34 17 -38 17 -65 1 -16 -9
-38 -17 -48 -17 -25 0 -63 28 -63 46 0 11 20 14 105 14 75 0 107 4 110 13 3 6
-1 32 -8 56 -27 93 -136 136 -226 89z m110 -58 c10 -6 19 -17 19 -25 0 -11
-13 -15 -55 -15 -57 0 -66 8 -39 34 18 18 47 20 75 6z"/>
<path d="M8190 1773 c-8 -3 -25 -15 -37 -26 l-23 -20 0 22 c0 20 -4 22 -52 19
l-53 -3 -3 -147 -3 -148 56 0 55 0 0 90 c0 78 3 93 21 111 17 17 29 20 60 15
37 -6 39 -5 59 34 l21 40 -26 10 c-28 11 -51 12 -75 3z"/>
<path d="M8565 1766 c-87 -39 -118 -155 -64 -242 36 -58 122 -81 184 -48 19
10 31 11 33 5 2 -6 28 -11 58 -11 l54 0 0 150 0 150 -54 0 c-30 0 -56 -5 -58
-11 -2 -6 -14 -5 -33 5 -36 19 -80 20 -120 2z m135 -96 c24 -24 26 -77 3 -102
-25 -28 -77 -24 -102 8 -27 35 -26 59 4 89 29 30 68 32 95 5z"/>
<path d="M9361 1764 c-45 -19 -60 -41 -61 -85 0 -40 14 -56 78 -88 23 -12 42
-28 42 -36 0 -20 -49 -20 -77 0 -20 14 -23 13 -43 -15 -28 -40 -21 -56 32 -71
91 -24 183 6 199 65 16 57 -16 100 -93 125 -48 16 -52 42 -8 43 3 1 19 -2 36
-5 26 -5 33 -2 47 23 23 38 23 38 -20 49 -51 15 -91 13 -132 -5z"/>
<path d="M6850 1765 c0 -3 10 -22 23 -43 13 -20 44 -76 70 -123 l47 -87 -50
-93 c-27 -52 -50 -97 -50 -101 0 -5 26 -8 58 -8 l57 0 115 221 c63 121 117
225 118 230 2 5 -23 9 -56 9 l-59 0 -35 -77 -35 -77 -43 77 -42 77 -59 0 c-32
0 -59 -2 -59 -5z"/>
<path d="M9610 1570 c-39 -39 -11 -110 43 -110 29 0 67 39 67 68 0 29 -34 62
-65 62 -14 0 -34 -9 -45 -20z"/>
<path d="M11090 350 c0 -5 9 -10 21 -10 11 0 17 5 14 10 -3 6 -13 10 -21 10
-8 0 -14 -4 -14 -10z"/>
</g>
</svg>
